# xmcd
# Copyright (C) 1995-1998 Ti Kan
#
# Track frame offsets:
#       150
#       512
#       17943
#       34057
#       50413
#       67829
#       86857
#       110112
#       128509
#       139477
#       156133
#       161980
#       172420
#       189080
#
# Disc length: 2726 seconds
#
# Revision: 0
# Processed by: cddbd v1.4PL0 Copyright (c) Steve Scherf et al.
# Submitted via: CD-Transfer v1.0
#
DISCID=bf0aa40e
DTITLE=Wurzel 5 - Jugendsündä
DYEAR=2001
DGENRE=
TTITLE0=Intro
TTITLE1=Jugendsündä
TTITLE2=Häng Id Luft
TTITLE3=Nid So Gmeint (Feat. Phantwo and Krust)
TTITLE4=Blybe Ufmerksam
TTITLE5=Spitze Vom Bärg
TTITLE6=Zimmer 17 (Fest. Samurai)
TTITLE7=Wixer Müesst Nid Meine ...!
TTITLE8=Läb Dr Ougeblick (Feat. Baze)
TTITLE9=Highway Vi
TTITLE10=Muess Das Sii?
TTITLE11=Auso Guet (Feat. Bambam)
TTITLE12=Wäge Dä Joints
TTITLE13=No Fragä?
EXTD=
EXTT0=
EXTT1=
EXTT2=
EXTT3=
EXTT4=
EXTT5=
EXTT6=
EXTT7=
EXTT8=
EXTT9=
EXTT10=
EXTT11=
EXTT12=
EXTT13=
PLAYORDER=
